<?xml version="1.0" standalone="no"?>
<!DOCTYPE svg PUBLIC "-//W3C//DTD SVG 20010904//EN"
 "http://www.w3.org/TR/2001/REC-SVG-20010904/DTD/svg10.dtd">
<svg version="1.0" xmlns="http://www.w3.org/2000/svg"
 width="2111.000000pt" height="2111.000000pt" viewBox="0 0 2111.000000 2111.000000"
 preserveAspectRatio="xMidYMid meet">
<metadata>
Created by potrace 1.14, written by Peter Selinger 2001-2017
</metadata>
<g transform="translate(0.000000,2111.000000) scale(0.100000,-0.100000)"
fill="#000000" stroke="none">
<path d="M10139 21105 c-2 -2 -67 -6 -143 -9 -77 -4 -163 -9 -190 -11 -28 -2
-85 -7 -126 -10 -93 -8 -138 -12 -215 -21 -75 -8 -93 -10 -180 -19 -38 -3 -77
-8 -85 -10 -8 -2 -42 -7 -75 -10 -33 -4 -67 -8 -75 -10 -8 -2 -35 -7 -60 -10
-25 -3 -81 -12 -125 -20 -44 -8 -96 -16 -115 -19 -19 -3 -60 -10 -90 -16 -30
-6 -68 -13 -85 -16 -68 -11 -285 -57 -360 -75 -44 -10 -89 -21 -100 -23 -11
-2 -49 -12 -85 -21 -36 -9 -73 -19 -83 -21 -103 -20 -507 -140 -762 -226 -210
-71 -676 -245 -718 -269 -10 -5 -77 -36 -150 -68 -73 -32 -163 -73 -202 -91
-84 -38 -447 -219 -519 -259 -28 -16 -82 -45 -121 -66 -38 -21 -87 -49 -107
-62 -21 -13 -39 -23 -41 -23 -28 0 -805 -498 -815 -522 -2 -4 -8 -8 -13 -8
-10 0 -346 -248 -459 -339 -295 -236 -494 -408 -734 -634 -110 -104 -322 -317
-404 -404 -47 -51 -90 -89 -96 -86 -6 3 -8 3 -4 -2 10 -10 -51 -87 -63 -79 -5
3 -8 2 -7 -3 4 -13 -115 -151 -131 -152 -8 -1 -12 -4 -8 -7 3 -3 -5 -18 -19
-33 -14 -14 -42 -47 -62 -74 -21 -27 -42 -45 -50 -42 -8 3 -10 0 -6 -7 4 -6
-1 -17 -11 -25 -11 -7 -15 -13 -11 -13 5 0 3 -7 -4 -15 -7 -8 -17 -12 -24 -8
-6 3 -8 3 -4 -2 7 -8 -25 -58 -62 -95 -8 -9 -26 -31 -40 -50 -14 -19 -36 -48
-50 -64 -14 -17 -32 -41 -40 -53 -8 -11 -49 -65 -90 -119 -86 -113 -101 -133
-166 -229 -26 -38 -50 -72 -54 -75 -6 -6 -172 -256 -245 -370 -214 -334 -517
-887 -655 -1195 -13 -27 -36 -79 -52 -115 -278 -607 -523 -1340 -674 -2015
-11 -51 -45 -206 -49 -230 -13 -66 -16 -83 -30 -155 -7 -41 -16 -91 -19 -110
-3 -19 -8 -45 -10 -56 -17 -87 -68 -452 -81 -579 -3 -33 -8 -71 -10 -85 -2
-14 -6 -65 -10 -115 -4 -49 -8 -97 -10 -105 -2 -8 -6 -71 -10 -140 -5 -69 -10
-147 -12 -175 -2 -27 -5 -309 -7 -626 -3 -448 -1 -593 10 -653 7 -42 16 -107
19 -144 3 -37 7 -89 10 -117 3 -27 7 -70 10 -95 2 -25 7 -72 10 -105 3 -33 8
-70 10 -81 2 -12 6 -48 10 -80 8 -66 52 -367 59 -400 2 -12 7 -37 10 -55 62
-368 162 -803 271 -1169 116 -391 312 -934 435 -1205 5 -11 27 -60 49 -108 23
-49 41 -90 41 -93 0 -2 34 -75 76 -161 42 -87 85 -176 95 -198 10 -22 33 -67
52 -100 18 -33 60 -109 92 -170 32 -60 94 -170 137 -244 43 -74 78 -135 78
-137 0 -4 89 -147 155 -249 117 -183 293 -445 305 -455 4 -3 22 -27 40 -55 19
-27 38 -54 43 -60 4 -5 55 -73 113 -150 97 -130 307 -391 380 -474 17 -20 65
-74 105 -121 184 -212 440 -476 760 -782 128 -121 242 -220 554 -477 11 -9 70
-55 130 -102 1065 -831 2274 -1448 3568 -1819 98 -28 187 -53 199 -55 11 -3
44 -11 72 -19 28 -8 62 -17 76 -20 14 -3 63 -15 110 -26 91 -22 249 -56 290
-64 14 -2 59 -12 100 -21 71 -15 210 -41 275 -51 17 -3 68 -12 115 -19 47 -8
101 -17 120 -19 19 -3 58 -7 85 -11 28 -4 61 -8 75 -11 23 -4 48 -7 159 -19
24 -2 60 -7 80 -9 20 -3 70 -8 111 -11 41 -3 86 -8 100 -10 14 -2 70 -6 125
-10 55 -3 116 -8 135 -10 89 -10 402 -18 665 -18 361 0 677 13 935 38 25 2 74
7 110 10 36 4 76 8 90 10 14 2 57 6 95 10 39 4 77 8 85 10 8 1 42 6 75 10 32
4 66 8 75 10 8 1 38 6 65 9 45 6 260 40 310 50 11 2 43 7 70 10 28 4 99 18
160 32 60 13 119 26 130 29 54 11 126 26 185 40 36 9 76 18 90 21 14 3 86 21
160 40 74 20 142 37 150 39 166 39 747 229 965 316 17 7 35 13 40 15 16 4 344
139 400 164 28 13 75 34 105 47 248 110 617 296 857 433 98 55 185 105 193
110 245 148 486 303 680 437 153 106 538 397 660 500 77 64 247 209 256 218 6
5 41 37 79 70 243 214 664 637 861 864 16 18 39 44 52 58 36 40 261 310 343
413 366 461 777 1089 1015 1550 27 52 52 97 55 100 19 16 271 552 369 785 23
55 51 120 63 145 11 25 21 51 23 58 1 8 14 37 28 66 34 70 65 154 141 381 54
163 139 437 150 485 2 8 26 96 53 195 73 265 139 556 192 845 34 184 44 244
54 320 3 25 8 54 10 66 2 12 7 45 11 75 3 30 8 65 10 79 2 14 6 50 10 80 4 30
8 66 10 80 2 14 7 57 11 95 3 39 8 84 9 100 2 17 6 68 10 115 4 47 8 97 10
113 13 108 20 391 19 812 0 491 -6 651 -29 875 -3 25 -7 76 -10 115 -3 38 -8
83 -10 100 -2 16 -7 57 -11 90 -9 92 -12 115 -23 190 -5 39 -13 93 -16 120 -4
28 -8 57 -10 65 -2 8 -7 35 -10 60 -9 67 -55 332 -70 400 -3 14 -7 36 -10 50
-3 14 -7 36 -10 50 -3 14 -7 34 -9 45 -36 184 -142 596 -217 842 -87 288 -242
734 -294 848 -7 17 -34 80 -59 142 -180 444 -526 1122 -752 1474 -24 38 -44
73 -44 78 0 4 -9 16 -20 26 -11 10 -20 22 -20 27 0 8 -246 382 -271 412 -5 6
-53 72 -107 146 -53 75 -109 151 -124 170 -16 19 -64 82 -109 140 -45 58 -100
127 -122 155 -110 131 -275 324 -307 359 -66 74 -165 180 -247 266 -44 47 -92
99 -104 115 -13 17 -30 34 -39 39 -8 5 -64 58 -125 117 -118 115 -144 139
-275 257 -46 43 -94 86 -106 97 -11 11 -34 31 -50 45 -26 22 -260 218 -309
259 -24 19 -239 186 -281 218 -16 12 -69 51 -119 88 -49 36 -99 72 -110 81
-39 31 -541 362 -598 395 -33 19 -73 43 -91 54 -18 11 -107 62 -197 114 -90
51 -190 109 -222 127 -32 19 -63 34 -68 34 -5 0 -28 11 -50 26 -38 24 -348
177 -492 243 -513 234 -1048 429 -1597 580 -80 22 -157 42 -170 45 -14 3 -34
7 -45 10 -50 13 -234 58 -270 66 -138 29 -250 52 -320 65 -44 8 -91 17 -105
20 -41 8 -132 24 -175 30 -41 5 -76 11 -130 20 -16 3 -84 12 -150 21 -66 8
-131 17 -145 19 -14 2 -54 6 -90 10 -36 4 -76 8 -90 10 -14 2 -61 7 -105 10
-44 3 -96 8 -115 10 -19 2 -84 7 -145 11 -60 3 -126 8 -145 11 -43 5 -986 13
-991 8z"/>
<path d="M2670 17749 c0 -5 5 -7 10 -4 6 3 10 8 10 11 0 2 -4 4 -10 4 -5 0
-10 -5 -10 -11z"/>
</g>
</svg>
